<?xml version="1.0" standalone="no"?>
<!DOCTYPE svg PUBLIC "-//W3C//DTD SVG 20010904//EN"
 "http://www.w3.org/TR/2001/REC-SVG-20010904/DTD/svg10.dtd">
<svg version="1.0" xmlns="http://www.w3.org/2000/svg"
 width="200.000000pt" height="55.000000pt" viewBox="0 0 200.000000 55.000000"
 preserveAspectRatio="xMidYMid meet">

<g transform="translate(0.000000,55.000000) scale(0.100000,-0.100000)"
fill="#000000" stroke="none">
<path d="M257 504 c-4 -4 -7 -33 -7 -64 0 -65 18 -92 45 -70 12 10 15 29 13
74 -3 53 -6 61 -23 64 -12 2 -24 0 -28 -4z"/>
<path d="M162 388 l-22 -22 47 -48 47 -48 -47 -48 -47 -48 22 -22 22 -22 48
47 48 47 48 -47 48 -47 22 22 22 22 -47 48 -47 48 47 48 47 48 -22 22 -22 22
-48 -47 -48 -47 -48 47 -48 47 -22 -22z"/>
<path d="M1005 328 c-13 -60 -25 -114 -25 -119 0 -4 23 -7 50 -7 55 0 70 14
70 63 0 29 -23 43 -45 25 -12 -10 -13 -6 -8 24 5 32 3 36 -16 36 -13 0 -22 -8
-26 -22z m55 -70 c0 -19 -18 -43 -25 -36 -9 9 4 48 16 48 5 0 9 -6 9 -12z"/>
<path d="M1435 328 c-30 -135 -30 -130 -3 -126 16 2 24 12 29 36 4 18 9 36 13
39 12 12 15 -3 7 -40 -8 -35 -7 -37 15 -37 19 0 24 7 30 35 9 50 -1 69 -31 61
-23 -6 -24 -4 -19 24 6 26 4 30 -15 30 -13 0 -22 -8 -26 -22z"/>
<path d="M1745 328 c-30 -135 -30 -130 -3 -126 16 2 24 12 29 36 4 18 9 36 13
39 12 12 15 -3 7 -40 -8 -35 -7 -37 15 -37 19 0 24 7 30 35 9 50 -1 69 -31 61
-23 -6 -24 -4 -19 24 6 26 4 30 -15 30 -13 0 -22 -8 -26 -22z"/>
<path d="M682 270 c-17 -38 -26 -70 -21 -70 5 0 12 7 15 15 4 8 17 15 30 15
15 0 24 -6 24 -15 0 -10 10 -15 26 -15 26 0 27 1 20 46 -3 26 -6 57 -6 70 0
20 -5 24 -29 24 -25 0 -31 -7 -59 -70z m36 -19 c-15 -6 -20 7 -12 31 l8 23 6
-25 c3 -14 2 -27 -2 -29z"/>
<path d="M1255 329 c-4 -6 -4 -13 -1 -16 3 -3 2 -11 -3 -17 -5 -6 -12 -30 -16
-54 -7 -42 -6 -43 16 -40 20 2 25 12 35 63 7 33 10 63 8 67 -7 12 -32 10 -39
-3z"/>
<path d="M1671 303 c-5 -21 -11 -47 -13 -57 -4 -24 -28 -34 -28 -12 0 9 -8 16
-20 16 -24 0 -28 -35 -4 -44 56 -22 91 3 108 77 13 57 13 57 -10 57 -18 0 -25
-8 -33 -37z"/>
<path d="M44 285 c-13 -33 4 -45 64 -45 41 0 64 5 72 15 23 27 -5 45 -72 45
-43 0 -60 -4 -64 -15z"/>
<path d="M380 285 c-10 -12 -10 -18 0 -30 10 -12 29 -15 74 -13 58 3 61 4 61
28 0 24 -3 25 -61 28 -45 2 -64 -1 -74 -13z"/>
<path d="M806 292 c-2 -4 -7 -26 -11 -50 -7 -42 -6 -43 16 -40 17 2 25 12 30
36 4 18 9 36 13 39 12 12 15 -3 7 -40 -8 -34 -7 -37 14 -37 18 0 24 7 29 40 3
22 11 40 16 40 12 0 12 -7 1 -48 -9 -30 -8 -32 14 -32 20 0 25 7 31 34 10 57
5 61 -79 63 -42 1 -78 -1 -81 -5z"/>
<path d="M1136 291 c-2 -3 -7 -25 -11 -48 -6 -39 -5 -43 14 -43 22 0 25 4 36
54 6 27 7 27 20 10 15 -21 19 -19 29 13 6 20 3 21 -39 21 -25 -1 -47 -4 -49
-7z"/>
<path d="M1323 294 c-20 -9 -15 -40 10 -58 l22 -16 -27 6 c-22 5 -28 2 -28
-10 0 -12 10 -16 38 -16 59 0 88 43 37 56 -14 3 -25 10 -25 15 0 5 12 6 26 3
20 -5 25 -3 22 7 -5 14 -53 22 -75 13z"/>
<path d="M1883 294 c-26 -11 -13 -26 17 -20 17 3 30 1 30 -4 0 -6 -10 -10 -22
-10 -33 0 -51 -14 -46 -36 2 -15 13 -19 51 -21 42 -2 47 0 53 21 3 13 4 35 2
47 -2 20 -10 24 -38 26 -19 1 -41 0 -47 -3z m37 -64 c0 -5 -4 -10 -10 -10 -5
0 -10 5 -10 10 0 6 5 10 10 10 6 0 10 -4 10 -10z"/>
<path d="M261 166 c-7 -9 -11 -38 -9 -73 3 -54 5 -58 28 -58 23 0 25 4 28 58
3 54 -8 87 -28 87 -4 0 -13 -6 -19 -14z"/>
</g>
</svg>
